<svg id="Layer_1" data-name="Layer 1" xmlns="http://www.w3.org/2000/svg" xmlns:xlink="http://www.w3.org/1999/xlink" viewBox="0 0 650 320"><defs><style>.cls-1{fill:url(#linear-gradient);}.cls-2{fill:url(#linear-gradient-2);}.cls-3{fill:url(#linear-gradient-3);}.cls-4{font-size:31.18px;fill:#414042;font-family:Poppins-Regular, Poppins;letter-spacing:-0.03em;}.cls-5{font-family:Poppins-Bold, Poppins;font-weight:700;}.cls-6{fill:none;}.cls-7{fill:#ed2541;}.cls-8{fill:#f69320;}.cls-9{fill:#1d76bb;}</style><linearGradient id="linear-gradient" x1="95.51" y1="151.13" x2="228.18" y2="151.13" gradientUnits="userSpaceOnUse"><stop offset="0" stop-color="#2c3f94"/><stop offset="1" stop-color="#3e98d3"/></linearGradient><linearGradient id="linear-gradient-2" x1="8.4" y1="111.37" x2="119.21" y2="111.37" xlink:href="#linear-gradient"/><linearGradient id="linear-gradient-3" x1="91.4" y1="39.54" x2="147.01" y2="39.54" xlink:href="#linear-gradient"/></defs><title>Logo</title><path class="cls-1" d="M119.2,111.1,154,75.5s32.8-26.7,59.8,2.6c29.4,32,4.6,59.3,4.6,59.3L119.2,237.9l-18.6-18.6s-8.8-9.9-3.3-20.1a43.3,43.3,0,0,1,9.4-12.3l29.6-29.6s5.5-5.2,5.5-15.5a13.4,13.4,0,0,0-2.8-8.8Z"/><path class="cls-2" d="M119.2,111.1l-28-28.7c-9.4-9.9-22.3-16.9-37-16.9a45.8,45.8,0,1,0,0,91.5c15.4,0,30.2-10.3,38.1-18.6Z"/><circle class="cls-3" cx="119.2" cy="39.5" r="27.8"/><text class="cls-4" transform="translate(183.3 287.6)">Pelatihan Online <tspan class="cls-5" x="248.1" y="0">BKKBN</tspan></text><polygon class="cls-6" points="451.8 242.9 466.3 236 451.8 214.1 451.8 242.9"/><polygon class="cls-6" points="474.4 227.2 474.4 193.2 457.4 201.3 474.4 227.2"/><polygon class="cls-7" points="183.5 248.4 217.7 248.4 217.7 237.5 197.1 237.5 197.1 237.1 183.5 243.5 183.5 248.4"/><polygon class="cls-7" points="251.2 248.5 282.7 248.5 282.7 237.9 264.9 237.9 264.9 217.7 251.2 224.2 251.2 248.5"/><polygon class="cls-7" points="287.1 207.1 287.1 248.5 321.4 248.5 321.4 237.5 300.8 237.5 300.8 225.3 319 225.3 319 214.8 300.8 214.8 300.8 203.5 321.4 203.5 321.4 203.4 316.6 193.2 287.1 207.1"/><polygon class="cls-7" points="324.5 248.5 338.8 248.5 340.4 243.6 332.4 226.6 324.5 248.5"/><polygon class="cls-7" points="366.3 248.5 380.7 248.5 376.8 237.6 364.6 243.4 366.3 248.5"/><path class="cls-7" d="M401.7,227.3l11.6,21.1h15.4l-12.9-22.1c7.3-2.1,11.1-7.2,12.1-12.9l-29.5,14Z"/><polygon class="cls-7" points="384.8 248.5 398.4 248.5 398.4 227.4 384.8 233.8 384.8 248.5"/><polygon class="cls-7" points="451.8 242.9 451.8 214.1 466.3 236 488 225.8 488 192.8 475.3 192.8 474.4 193.2 474.4 227.2 457.4 201.3 438.3 210.3 438.3 248.3 450.7 248.3 448.8 244.3 451.8 242.9"/><polygon class="cls-7" points="509.3 192.8 495.7 192.8 495.7 222.1 509.3 215.7 509.3 192.8"/><polygon class="cls-7" points="553.2 192.8 553.2 194.9 557.7 192.8 553.2 192.8"/><polygon class="cls-7" points="530.6 192.8 517 192.8 517 212 537 202.6 530.6 192.8"/><polygon class="cls-8" points="215.3 225.2 215.3 214.7 197.1 214.7 197.1 203.4 217.7 203.4 217.7 192.5 183.5 192.5 183.5 243.5 197.1 237.1 197.1 225.2 215.3 225.2"/><polygon class="cls-8" points="251.2 192.5 251.2 224.2 264.9 217.7 264.9 192.5 251.2 192.5"/><polygon class="cls-8" points="316.2 192.5 287.1 192.5 287.1 207.1 316.6 193.2 316.2 192.5"/><polygon class="cls-8" points="398.4 227.4 398.4 227.3 398.4 227.3 398.4 227.4"/><polygon class="cls-8" points="318 192.5 316.6 193.2 321.4 203.4 321.4 192.5 318 192.5"/><path class="cls-9" d="M344.7,192.5l-12.3,34.1,8,16.9,1.7-5H363l1.6,4.8,12.2-5.8-16.3-45.1Zm1,35.5,6.8-20.5,6.9,20.5Z"/><path class="cls-9" d="M407.6,192.5H384.8v41.3l13.6-6.5h0l29.5-14a18.4,18.4,0,0,0,.3-3.2C428.2,200.4,421.3,192.5,407.6,192.5Zm-.8,25.2h-8.4V203.9h8.4c5.1,0,7.5,2.7,7.5,6.8S411.9,217.7,406.8,217.7Z"/><polygon class="cls-8" points="474.4 193.2 475.3 192.8 474.4 192.8 474.4 193.2"/><polygon class="cls-9" points="451.8 192.8 438.3 192.8 438.3 210.3 457.4 201.3 451.8 192.8"/><polygon class="cls-8" points="316.6 193.2 318 192.5 316.2 192.5 316.6 193.2"/><polygon class="cls-8" points="451.8 242.9 448.8 244.3 450.7 248.3 451.8 248.3 451.8 242.9"/><polygon class="cls-8" points="474.4 248.3 488 248.3 488 225.8 466.3 236 474.4 248.3"/><polygon class="cls-8" points="509.3 248.3 509.3 215.7 495.7 222.1 495.7 248.3 509.3 248.3"/><polygon class="cls-8" points="530.6 248.3 530.6 214.1 553.2 248.3 566.7 248.3 566.7 192.8 557.7 192.8 553.2 194.9 553.2 227.2 537 202.6 517 212 517 248.3 530.6 248.3"/><path class="cls-8" d="M600.5,248.7c14.6,0,23.9-9.6,26.7-19.2V217H597.8v10H615c-2.1,6.3-6.7,9.8-13.5,9.8-9.7,0-15.6-6-15.6-16.3s5.8-15.8,14.5-15.8c5.1,0,8.9,2,10.9,5.7h15c-2.9-11.4-12.6-18.2-25.9-18.2-16.6,0-28.3,11.7-28.3,28.3S583.9,248.7,600.5,248.7Z"/><rect class="cls-8" x="225.6" y="215.6" width="16.9" height="8.58"/></svg>