<svg id="Layer_1" data-name="Layer 1" xmlns="http://www.w3.org/2000/svg" viewBox="0 0 1100 150"><defs><style>.cls-1{fill:none;}.cls-2{fill:#ed2541;}.cls-3{fill:#f69320;}.cls-4{fill:#1d76bb;}</style></defs><title>Logo</title><polygon class="cls-1" points="666.5 131.4 701.6 114.8 666.5 61.6 666.5 131.4"/><polygon class="cls-1" points="721.3 93.3 721.3 11 680 30.6 721.3 93.3"/><polygon class="cls-2" points="17.2 144.6 100 144.6 100 118.2 50.1 118.2 50.1 117.2 17.2 132.8 17.2 144.6"/><polygon class="cls-2" points="181.1 144.8 257.3 144.8 257.3 119.3 214.1 119.3 214.1 70.4 181.1 86 181.1 144.8"/><polygon class="cls-2" points="268.1 44.8 268.1 144.8 350.9 144.8 350.9 118.4 301 118.4 301 88.7 345.1 88.7 345.1 63.3 301 63.3 301 35.9 350.9 35.9 350.9 35.8 339.2 11.1 268.1 44.8"/><polygon class="cls-2" points="358.4 144.8 392.9 144.8 396.9 133 377.5 92 358.4 144.8"/><polygon class="cls-2" points="459.6 144.8 494.5 144.8 485 118.5 455.4 132.5 459.6 144.8"/><path class="cls-2" d="M545.2,93.7l28.1,51.1h37.2L579.3,91.2C596.8,86,606.1,73.8,608.6,60L537.3,93.7Z"/><polygon class="cls-2" points="504.3 144.8 537.3 144.8 537.3 93.8 504.3 109.4 504.3 144.8"/><polygon class="cls-2" points="666.5 131.4 666.5 61.6 701.6 114.8 754 90 754 10.1 723.3 10.1 721.3 11 721.3 93.3 680 30.6 633.7 52.5 633.7 144.5 663.8 144.5 659.2 134.9 666.5 131.4"/><polygon class="cls-2" points="805.5 10.1 772.8 10.1 772.8 81.1 805.5 65.6 805.5 10.1"/><polygon class="cls-2" points="911.8 10.1 911.8 15.2 922.7 10.1 911.8 10.1"/><polygon class="cls-2" points="857 10.1 824.3 10.1 824.3 56.7 872.6 33.8 857 10.1"/><polygon class="cls-3" points="94.2 88.5 94.2 63.1 50.1 63.1 50.1 35.7 100 35.7 100 9.3 17.2 9.3 17.2 132.8 50.1 117.2 50.1 88.5 94.2 88.5"/><polygon class="cls-3" points="181.1 9.5 181.1 86 214.1 70.4 214.1 9.5 181.1 9.5"/><polygon class="cls-3" points="338.5 9.5 268.1 9.5 268.1 44.8 339.2 11.1 338.5 9.5"/><polygon class="cls-3" points="537.3 93.8 537.3 93.7 537.3 93.7 537.3 93.8"/><polygon class="cls-3" points="342.6 9.5 339.2 11.1 350.9 35.8 350.9 9.5 342.6 9.5"/><path class="cls-4" d="M407.4,9.5,377.5,92l19.4,41,4.1-12.1h50.5l3.9,11.6,29.5-14L445.5,9.5Zm2.3,85.9,16.6-49.5L443,95.5Z"/><path class="cls-4" d="M559.6,9.5H504.3v99.9l33-15.6h.1L608.6,60a44.4,44.4,0,0,0,.7-7.9C609.3,28.6,592.8,9.5,559.6,9.5Zm-1.9,60.9H537.3V36.9h20.4c12.3,0,18.1,6.6,18.1,16.6S570,70.4,557.7,70.4Z"/><polygon class="cls-3" points="721.3 11 723.3 10.1 721.3 10.1 721.3 11"/><polygon class="cls-4" points="666.5 10.1 633.7 10.1 633.7 52.5 680 30.6 666.5 10.1"/><polygon class="cls-3" points="339.2 11.1 342.6 9.5 338.5 9.5 339.2 11.1"/><polygon class="cls-3" points="666.5 131.4 659.2 134.9 663.8 144.5 666.5 144.5 666.5 131.4"/><polygon class="cls-3" points="721.3 144.5 754 144.5 754 90 701.6 114.8 721.3 144.5"/><polygon class="cls-3" points="805.5 144.5 805.5 65.6 772.8 81.1 772.8 144.5 805.5 144.5"/><polygon class="cls-3" points="857 144.5 857 61.6 911.8 144.5 944.5 144.5 944.5 10.1 922.7 10.1 911.8 15.2 911.8 93.3 872.6 33.8 824.3 56.7 824.3 144.5 857 144.5"/><path class="cls-3" d="M1026.3,145.4c35.4,0,57.8-23.2,64.7-46.3V68.6h-71.2V92.8h41.6c-5,15.1-16.3,23.7-32.6,23.7-23.6,0-37.7-14.6-37.7-39.4,0-23.4,14-38.3,35-38.3,12.3,0,21.4,4.8,26.4,13.8h36.2c-7.1-27.6-30.4-44-62.6-44-40.2,0-68.4,28.3-68.4,68.6S986.1,145.4,1026.3,145.4Z"/><rect class="cls-3" x="119.1" y="65.2" width="41" height="20.77"/></svg>