<svg id="Layer_1" data-name="Layer 1" xmlns="http://www.w3.org/2000/svg" viewBox="0 0 1100 150"><defs><style>.cls-1{fill:#414042;}.cls-2{fill:#fff;}</style></defs><title>Logo</title><rect class="cls-1" x="12" y="7.5" width="1079" height="135.31" rx="30.2" ry="30.2"/><polygon class="cls-2" points="337.4 103.1 371.6 103.1 371.6 92.2 351 92.2 351 91.8 337.4 98.2 337.4 103.1"/><polygon class="cls-2" points="405.2 103.2 436.6 103.2 436.6 92.7 418.8 92.7 418.8 72.5 405.2 78.9 405.2 103.2"/><polygon class="cls-2" points="441.1 61.9 441.1 103.2 475.3 103.2 475.3 92.3 454.7 92.3 454.7 80 472.9 80 472.9 69.5 454.7 69.5 454.7 58.2 475.3 58.2 475.3 58.2 470.5 48 441.1 61.9"/><polygon class="cls-2" points="478.4 103.2 492.7 103.2 494.3 98.3 486.3 81.4 478.4 103.2"/><polygon class="cls-2" points="520.2 103.2 534.6 103.2 530.7 92.3 518.5 98.1 520.2 103.2"/><path class="cls-2" d="M555.6,82.1l11.6,21.1h15.4L569.7,81.1c7.3-2.1,11.1-7.2,12.1-12.9l-29.5,14Z"/><polygon class="cls-2" points="538.7 103.2 552.3 103.2 552.3 82.1 538.7 88.6 538.7 103.2"/><polygon class="cls-2" points="605.7 97.7 605.7 68.8 620.3 90.8 641.9 80.5 641.9 47.5 629.2 47.5 628.4 47.9 628.4 81.9 611.3 56 592.2 65.1 592.2 103.1 604.6 103.1 602.7 99.1 605.7 97.7"/><polygon class="cls-2" points="663.2 47.5 649.7 47.5 649.7 76.9 663.2 70.5 663.2 47.5"/><polygon class="cls-2" points="707.1 47.5 707.1 49.7 711.6 47.5 707.1 47.5"/><polygon class="cls-2" points="684.5 47.5 670.9 47.5 670.9 66.8 690.9 57.3 684.5 47.5"/><polygon class="cls-2" points="369.2 79.9 369.2 69.4 351 69.4 351 58.1 371.6 58.1 371.6 47.2 337.4 47.2 337.4 98.2 351 91.8 351 79.9 369.2 79.9"/><polygon class="cls-2" points="405.2 47.3 405.2 78.9 418.8 72.5 418.8 47.3 405.2 47.3"/><polygon class="cls-2" points="470.2 47.3 441.1 47.3 441.1 61.9 470.5 48 470.2 47.3"/><polygon class="cls-2" points="552.3 82.1 552.4 82.1 552.3 82.1 552.3 82.1"/><polygon class="cls-2" points="471.9 47.3 470.5 48 475.3 58.2 475.3 47.3 471.9 47.3"/><path class="cls-2" d="M498.7,47.3,486.3,81.4l8,16.9,1.7-5h20.9l1.6,4.8,12.2-5.8L514.4,47.3Zm1,35.5,6.8-20.5,6.9,20.5Z"/><path class="cls-2" d="M561.6,47.3H538.7V88.6l13.6-6.5h0l29.5-14a18.4,18.4,0,0,0,.3-3.2C582.1,55.2,575.3,47.3,561.6,47.3Zm-.8,25.2h-8.4V58.6h8.4c5.1,0,7.5,2.7,7.5,6.8S565.9,72.5,560.8,72.5Z"/><polygon class="cls-2" points="628.4 47.9 629.2 47.5 628.4 47.5 628.4 47.9"/><polygon class="cls-2" points="605.7 47.5 592.2 47.5 592.2 65.1 611.3 56 605.7 47.5"/><polygon class="cls-2" points="470.5 48 471.9 47.3 470.2 47.3 470.5 48"/><polygon class="cls-2" points="605.7 97.7 602.7 99.1 604.6 103.1 605.7 103.1 605.7 97.7"/><polygon class="cls-2" points="628.4 103.1 641.9 103.1 641.9 80.5 620.3 90.8 628.4 103.1"/><polygon class="cls-2" points="663.2 103.1 663.2 70.5 649.7 76.9 649.7 103.1 663.2 103.1"/><polygon class="cls-2" points="684.5 103.1 684.5 68.8 707.1 103.1 720.6 103.1 720.6 47.5 711.6 47.5 707.1 49.7 707.1 81.9 690.9 57.3 670.9 66.8 670.9 103.1 684.5 103.1"/><path class="cls-2" d="M754.4,103.5c14.6,0,23.9-9.6,26.7-19.2V71.7H751.7v10h17.2c-2.1,6.3-6.7,9.8-13.5,9.8-9.7,0-15.6-6-15.6-16.3s5.8-15.8,14.5-15.8c5.1,0,8.9,2,10.9,5.7h15c-2.9-11.4-12.6-18.2-25.9-18.2-16.6,0-28.3,11.7-28.3,28.3S737.8,103.5,754.4,103.5Z"/><rect class="cls-2" x="379.5" y="70.3" width="16.9" height="8.58"/></svg>