<svg id="Layer_1" data-name="Layer 1" xmlns="http://www.w3.org/2000/svg" xmlns:xlink="http://www.w3.org/1999/xlink" viewBox="0 0 1050 350"><defs><style>.cls-1{fill:url(#linear-gradient);}.cls-2{fill:url(#linear-gradient-2);}.cls-3{fill:url(#linear-gradient-3);}.cls-4,.cls-5{fill:#414042;}.cls-5{font-size:31.18px;font-family:Poppins-Regular, Poppins;letter-spacing:-0.03em;}.cls-6{font-family:Poppins-Bold, Poppins;font-weight:700;}.cls-7{fill:none;}.cls-8{fill:#ed2541;}.cls-9{fill:#f69320;}.cls-10{fill:#1d76bb;}</style><linearGradient id="linear-gradient" x1="516.15" y1="140.45" x2="639.37" y2="140.45" gradientUnits="userSpaceOnUse"><stop offset="0" stop-color="#2c3f94"/><stop offset="1" stop-color="#3e98d3"/></linearGradient><linearGradient id="linear-gradient-2" x1="435.25" y1="103.52" x2="538.16" y2="103.52" xlink:href="#linear-gradient"/><linearGradient id="linear-gradient-3" x1="512.33" y1="36.81" x2="563.98" y2="36.81" xlink:href="#linear-gradient"/></defs><title>Logo</title><path class="cls-1" d="M538.2,103.3l32.3-33.2S601,45.4,626,72.6c27.3,29.8,4.3,55.1,4.3,55.1l-92.1,93.3-17.3-17.3s-8.1-9.2-3.1-18.7a40.2,40.2,0,0,1,8.7-11.4L554,146.2s5.1-4.8,5.1-14.4a12.5,12.5,0,0,0-2.6-8.1Z"/><path class="cls-2" d="M538.2,103.3l-26-26.6C503.4,67.5,491.4,61,477.8,61a42.5,42.5,0,0,0,0,85c14.3,0,28.1-9.6,35.4-17.3Z"/><circle class="cls-3" cx="538.2" cy="36.8" r="25.8"/><path class="cls-4" d="M53,183.2A43.8,43.8,0,0,0,26.6,192V146.3a3.6,3.6,0,0,0-3.6-3.6H12.6A3.6,3.6,0,0,0,9,146.3v86.1a3.6,3.6,0,0,0,.6,2A44,44,0,1,0,53,183.2Zm0,70.4a26.4,26.4,0,1,1,26.4-26.4A26.4,26.4,0,0,1,53,253.7Z"/><path class="cls-4" d="M341.8,183.2a43.8,43.8,0,0,0-26.4,8.8V146.3a3.6,3.6,0,0,0-3.6-3.6H301.4a3.6,3.6,0,0,0-3.6,3.6v86.1a3.6,3.6,0,0,0,.6,2,44,44,0,1,0,43.4-51.2Zm0,70.4a26.4,26.4,0,1,1,26.4-26.4A26.4,26.4,0,0,1,341.8,253.7Z"/><path class="cls-4" d="M412.2,225.5c0-14,11.8-25.4,26.4-25.4s26.4,11.4,26.4,25.4v39a3.3,3.3,0,0,0,3.3,3.3h11.1a3.3,3.3,0,0,0,3.3-3.3v-39c0-23.3-19.7-42.3-44-42.3s-44,19-44,42.3v39a3.3,3.3,0,0,0,3.3,3.3H409a3.3,3.3,0,0,0,3.3-3.3Z"/><path class="cls-4" d="M285.3,184.3l-18,.3a4.7,4.7,0,0,0-3.2,1.3L222,226.3V146.5a3.8,3.8,0,0,0-3.7-3.7H208.2a3.8,3.8,0,0,0-3.7,3.7V264a3.8,3.8,0,0,0,3.7,3.7h10.1A3.8,3.8,0,0,0,222,264V250.6l12.2-12.2,28.2,27.1a4.7,4.7,0,0,0,3.2,1.3l18,.3a1.3,1.3,0,0,0,.9-2.1l-38.4-38.4,40.2-40.2A1.3,1.3,0,0,0,285.3,184.3Z"/><path class="cls-4" d="M190.2,182.5l-18,.3a4.7,4.7,0,0,0-3.2,1.3l-42.2,40.4V144.7a3.8,3.8,0,0,0-3.7-3.7H113.1a3.8,3.8,0,0,0-3.7,3.7V262.2a3.8,3.8,0,0,0,3.7,3.7h10.1a3.8,3.8,0,0,0,3.7-3.7V248.8l12.2-12.2,28.2,27.1a4.7,4.7,0,0,0,3.2,1.3l18,.3a1.3,1.3,0,0,0,.9-2.1L151,224.8l40.2-40.2A1.3,1.3,0,0,0,190.2,182.5Z"/><text class="cls-5" transform="translate(598.1 299.8)">Pelatihan Online <tspan class="cls-6" x="248.1" y="0">BKKBN</tspan></text><polygon class="cls-7" points="866.6 255.1 881.2 248.2 866.6 226.2 866.6 255.1"/><polygon class="cls-7" points="889.3 239.4 889.3 205.4 872.2 213.4 889.3 239.4"/><polygon class="cls-8" points="598.3 260.6 632.5 260.6 632.5 249.6 611.9 249.6 611.9 249.2 598.3 255.7 598.3 260.6"/><polygon class="cls-8" points="666 260.6 697.5 260.6 697.5 250.1 679.7 250.1 679.7 229.9 666 236.3 666 260.6"/><polygon class="cls-8" points="702 219.3 702 260.6 736.2 260.6 736.2 249.7 715.6 249.7 715.6 237.5 733.8 237.5 733.8 226.9 715.6 226.9 715.6 215.6 736.2 215.6 736.2 215.6 731.4 205.4 702 219.3"/><polygon class="cls-8" points="739.3 260.6 753.6 260.6 755.2 255.8 747.2 238.8 739.3 260.6"/><polygon class="cls-8" points="781.1 260.6 795.5 260.6 791.6 249.8 779.4 255.6 781.1 260.6"/><path class="cls-8" d="M816.5,239.5l11.6,21.1h15.4l-12.9-22.1c7.3-2.1,11.1-7.2,12.1-12.9l-29.5,14Z"/><polygon class="cls-8" points="799.6 260.6 813.2 260.6 813.2 239.5 799.6 246 799.6 260.6"/><polygon class="cls-8" points="866.6 255.1 866.6 226.2 881.2 248.2 902.8 238 902.8 205 890.1 205 889.3 205.4 889.3 239.4 872.2 213.4 853.1 222.5 853.1 260.5 865.5 260.5 863.6 256.5 866.6 255.1"/><polygon class="cls-8" points="924.1 205 910.5 205 910.5 234.3 924.1 227.9 924.1 205"/><polygon class="cls-8" points="968 205 968 207.1 972.5 205 968 205"/><polygon class="cls-8" points="945.4 205 931.8 205 931.8 224.2 951.8 214.8 945.4 205"/><polygon class="cls-9" points="630.1 237.4 630.1 226.9 611.9 226.9 611.9 215.6 632.5 215.6 632.5 204.6 598.3 204.6 598.3 255.7 611.9 249.2 611.9 237.4 630.1 237.4"/><polygon class="cls-9" points="666 204.7 666 236.3 679.7 229.9 679.7 204.7 666 204.7"/><polygon class="cls-9" points="731.1 204.7 702 204.7 702 219.3 731.4 205.4 731.1 204.7"/><polygon class="cls-9" points="813.2 239.5 813.2 239.5 813.2 239.5 813.2 239.5"/><polygon class="cls-9" points="732.8 204.7 731.4 205.4 736.2 215.6 736.2 204.7 732.8 204.7"/><path class="cls-10" d="M759.5,204.7l-12.3,34.1,8,16.9,1.7-5h20.9l1.6,4.8,12.2-5.8-16.3-45.1Zm1,35.5,6.8-20.5,6.9,20.5Z"/><path class="cls-10" d="M822.5,204.7H799.6V246l13.6-6.5h0l29.5-14a18.4,18.4,0,0,0,.3-3.2C843,212.6,836.2,204.7,822.5,204.7Zm-.8,25.2h-8.4V216h8.4c5.1,0,7.5,2.7,7.5,6.8S826.8,229.9,821.7,229.9Z"/><polygon class="cls-9" points="889.3 205.4 890.1 205 889.3 205 889.3 205.4"/><polygon class="cls-10" points="866.6 205 853.1 205 853.1 222.5 872.2 213.4 866.6 205"/><polygon class="cls-9" points="731.4 205.4 732.8 204.7 731.1 204.7 731.4 205.4"/><polygon class="cls-9" points="866.6 255.1 863.6 256.5 865.5 260.5 866.6 260.5 866.6 255.1"/><polygon class="cls-9" points="889.3 260.5 902.8 260.5 902.8 238 881.2 248.2 889.3 260.5"/><polygon class="cls-9" points="924.1 260.5 924.1 227.9 910.5 234.3 910.5 260.5 924.1 260.5"/><polygon class="cls-9" points="945.4 260.5 945.4 226.2 968 260.5 981.5 260.5 981.5 205 972.5 205 968 207.1 968 239.4 951.8 214.8 931.8 224.2 931.8 260.5 945.4 260.5"/><path class="cls-9" d="M1015.3,260.9c14.6,0,23.9-9.6,26.7-19.2V229.2h-29.4v10h17.2c-2.1,6.3-6.7,9.8-13.5,9.8-9.7,0-15.6-6-15.6-16.3s5.8-15.8,14.5-15.8c5.1,0,8.9,2,10.9,5.7h15c-2.9-11.4-12.6-18.2-25.9-18.2-16.6,0-28.3,11.7-28.3,28.3S998.7,260.9,1015.3,260.9Z"/><rect class="cls-9" x="640.4" y="227.8" width="16.9" height="8.58"/></svg>