<svg id="Layer_1" data-name="Layer 1" xmlns="http://www.w3.org/2000/svg" viewBox="0 0 1000 150"><defs><style>.cls-1{fill:#f1f2f2;}</style></defs><title>Logo Learning</title><polygon class="cls-1" points="9.1 135.5 85.4 135.5 85.4 111.2 39.5 111.2 39.5 110.2 9.1 124.6 9.1 135.5"/><polygon class="cls-1" points="160.1 135.7 230.2 135.7 230.2 112.2 190.5 112.2 190.5 67.1 160.1 81.5 160.1 135.7"/><polygon class="cls-1" points="240.2 43.6 240.2 135.7 316.5 135.7 316.5 111.3 270.5 111.3 270.5 84 311.2 84 311.2 60.6 270.5 60.6 270.5 35.4 316.5 35.4 316.5 35.3 305.7 12.6 240.2 43.6"/><polygon class="cls-1" points="323.4 135.7 355.2 135.7 358.9 124.8 341 87 323.4 135.7"/><polygon class="cls-1" points="416.6 135.7 448.7 135.7 439.9 111.5 412.7 124.3 416.6 135.7"/><path class="cls-1" d="M495.4,88.6l25.9,47h34.2L526.8,86.3c16.2-4.8,24.7-16,27-28.8L488.1,88.6Z"/><polygon class="cls-1" points="457.7 135.7 488.1 135.7 488.1 88.7 457.7 103 457.7 135.7"/><polygon class="cls-1" points="607.1 123.3 607.1 59 639.4 108 687.7 85.2 687.7 11.6 659.4 11.6 657.5 12.5 657.5 88.3 619.5 30.5 576.9 50.7 576.9 135.4 604.6 135.4 600.4 126.5 607.1 123.3"/><polygon class="cls-1" points="735.1 11.6 704.9 11.6 704.9 77 735.1 62.7 735.1 11.6"/><polygon class="cls-1" points="833 11.6 833 16.3 843 11.6 833 11.6"/><polygon class="cls-1" points="782.5 11.6 752.4 11.6 752.4 54.5 796.9 33.4 782.5 11.6"/><polygon class="cls-1" points="80.1 83.8 80.1 60.4 39.5 60.4 39.5 35.2 85.4 35.2 85.4 10.9 9.1 10.9 9.1 124.6 39.5 110.2 39.5 83.8 80.1 83.8"/><polygon class="cls-1" points="160.1 11.1 160.1 81.5 190.5 67.1 190.5 11.1 160.1 11.1"/><polygon class="cls-1" points="305 11.1 240.2 11.1 240.2 43.6 305.7 12.6 305 11.1"/><polygon class="cls-1" points="488.1 88.7 488.1 88.6 488.1 88.6 488.1 88.7"/><polygon class="cls-1" points="308.9 11.1 305.7 12.6 316.5 35.3 316.5 11.1 308.9 11.1"/><path class="cls-1" d="M368.5,11.1,341,87l17.9,37.7,3.8-11.1h46.5l3.6,10.7,27.2-12.9L403.6,11.1Zm2.1,79.1,15.3-45.6,15.4,45.6Z"/><path class="cls-1" d="M508.7,11.1H457.7v92l30.3-14.4h.1l65.6-31.1a40.9,40.9,0,0,0,.7-7.2C554.4,28.6,539.2,11.1,508.7,11.1Zm-1.8,56.1H488.1V36.3h18.8c11.4,0,16.7,6,16.7,15.3S518.2,67.2,506.9,67.2Z"/><polygon class="cls-1" points="657.5 12.5 659.4 11.6 657.5 11.6 657.5 12.5"/><polygon class="cls-1" points="607.1 11.6 576.9 11.6 576.9 50.7 619.5 30.5 607.1 11.6"/><polygon class="cls-1" points="305.7 12.6 308.9 11.1 305 11.1 305.7 12.6"/><polygon class="cls-1" points="607.1 123.3 600.4 126.5 604.6 135.4 607.1 135.4 607.1 123.3"/><polygon class="cls-1" points="657.5 135.4 687.7 135.4 687.7 85.2 639.4 108 657.5 135.4"/><polygon class="cls-1" points="735.1 135.4 735.1 62.7 704.9 77 704.9 135.4 735.1 135.4"/><polygon class="cls-1" points="782.5 135.4 782.5 59 833 135.4 863.1 135.4 863.1 11.6 843 11.6 833 16.3 833 88.3 796.9 33.4 752.4 54.5 752.4 135.4 782.5 135.4"/><path class="cls-1" d="M938.4,136.2c32.6,0,53.3-21.3,59.6-42.7v-28H932.4V87.7h38.3c-4.6,13.9-15,21.9-30,21.9C919,109.6,906,96.2,906,73.3S918.8,38,938.2,38c11.3,0,19.8,4.4,24.3,12.7h33.3c-6.5-25.4-28-40.6-57.7-40.6-37,0-62.9,26.1-62.9,63.1S901.4,136.2,938.4,136.2Z"/><rect class="cls-1" x="103" y="62.4" width="37.7" height="19.13"/></svg>